<?xml version="1.0" encoding="UTF-8" standalone="no"?>
<!-- Created with Inkscape (http://www.inkscape.org/) -->

<svg
   version="1.1"
   id="svg1"
   width="1024"
   height="559"
   viewBox="0 0 1024 559"
   sodipodi:docname="ticket.svg"
   inkscape:version="1.4.2 (ebf0e940, 2025-05-08)"
   inkscape:export-filename="../../Desktop/logo.png"
   inkscape:export-xdpi="96"
   inkscape:export-ydpi="96"
   xmlns:inkscape="http://www.inkscape.org/namespaces/inkscape"
   xmlns:sodipodi="http://sodipodi.sourceforge.net/DTD/sodipodi-0.dtd"
   xmlns="http://www.w3.org/2000/svg"
   xmlns:svg="http://www.w3.org/2000/svg">
  <defs
     id="defs1" />
  <sodipodi:namedview
     id="namedview1"
     pagecolor="#ffffff"
     bordercolor="#000000"
     borderopacity="0.25"
     inkscape:showpageshadow="2"
     inkscape:pageopacity="0.0"
     inkscape:pagecheckerboard="0"
     inkscape:deskcolor="#d1d1d1"
     inkscape:zoom="0.95560737"
     inkscape:cx="280.97314"
     inkscape:cy="237.02203"
     inkscape:window-width="1712"
     inkscape:window-height="966"
     inkscape:window-x="0"
     inkscape:window-y="35"
     inkscape:window-maximized="0"
     inkscape:current-layer="g1" />
  <g
     inkscape:groupmode="layer"
     inkscape:label="Image"
     id="g1"
     style="display:inline">
    <path
       id="path9"
       style="mix-blend-mode:normal;fill:#ff0000"
       d="m 489.05346,112.92298 c -2.36522,-0.12937 -6.93328,4.36401 -37.53125,34.95312 l -35.87695,35.86524 1.43359,2.77344 c 1.8033,3.48727 1.81109,6.62225 0.0254,10.04492 -1.3498,2.58718 -1.22457,2.83892 3.8086,7.64258 4.90463,4.68099 5.34496,4.8872 7.65234,3.60937 3.75069,-2.07716 7.48639,-1.68533 10.83789,1.13477 3.89846,3.28034 4.88444,8.03944 2.58789,12.48046 l -1.69726,3.28516 5.04882,4.78906 5.04883,4.79102 3.25781,-1.625 c 3.00923,-1.50122 3.60431,-1.49968 7.81055,0.0137 l 4.55274,1.63867 36.18945,-36.13672 36.1875,-36.13671 -1.4375,-2.78125 c -1.72496,-3.3357 -1.86155,-8.22328 -0.30859,-11.125 0.9975,-1.86386 0.57941,-2.63413 -3.53907,-6.5254 -3.41534,-3.22691 -5.12972,-4.20768 -6.38086,-3.65039 -0.94098,0.41914 -3.61211,0.95554 -5.9375,1.19141 -3.66584,0.37183 -4.62978,0.0265 -7.25,-2.59375 -3.31505,-3.31505 -3.99277,-7.9541 -1.84765,-12.66211 1.08108,-2.37273 0.83015,-2.93273 -3.13282,-6.9707 -3.7455,-3.81639 -4.62923,-4.27014 -6.74218,-3.4668 -3.35522,1.27566 -8.69509,1.15583 -11.81055,-0.26367 -0.31739,-0.14461 -0.61133,-0.25691 -0.94922,-0.27539 z m -2.23047,14.4707 c 0.7333,0.02 1.68004,0.82209 3.4375,2.68555 3.66294,3.88385 3.93902,4.82849 1.66992,5.69922 -1.98362,0.76119 -1.46882,1.00986 -4.66796,-2.25391 -3.1108,-3.17364 -3.24924,-3.68812 -1.50196,-5.55859 0.35305,-0.37795 0.6784,-0.58274 1.0625,-0.57227 z m 13.97071,14.79297 c 0.81043,-0.0423 1.8362,0.77577 4.01367,2.83008 3.01742,2.84677 3.54952,3.85242 2.62304,4.96875 -1.64881,1.9867 -2.11748,1.81979 -5.92578,-2.10938 -2.98252,-3.07718 -3.22215,-3.688 -1.9414,-4.96875 0.44025,-0.44026 0.80595,-0.69852 1.23047,-0.7207 z m 15.49804,14.50195 c 0.80634,-0.0323 1.81508,0.82978 3.98047,3.00196 3.10488,3.1146 3.48535,3.91517 2.24024,4.70898 -2.48411,1.58371 -3.73232,1.14193 -6.39454,-2.25976 -2.24114,-2.86364 -2.36791,-3.42115 -1.06445,-4.72461 0.44806,-0.44806 0.81592,-0.70962 1.23828,-0.72657 z m -82.43164,23.41602 c 0.7618,-0.0312 1.69269,0.75778 3.58008,2.70508 2.08749,2.15374 3.11218,4.0303 2.73633,5.00976 -0.96054,2.50311 -2.95059,1.83411 -6.0332,-2.02929 -2.47225,-3.09844 -2.67338,-3.79147 -1.45508,-5.00977 0.41879,-0.41879 0.77283,-0.65946 1.17187,-0.67578 z m 14.45703,14.61133 c 0.76559,0.0171 1.69605,0.91479 3.69727,3.09961 2.74455,2.99635 3.26771,4.14313 2.38476,5.20703 -1.66341,2.00428 -2.35056,1.73763 -5.86718,-2.26758 -2.90071,-3.30373 -3.04452,-3.77188 -1.61133,-5.20508 0.53745,-0.53744 0.93713,-0.84423 1.39648,-0.83398 z m 14.35742,15.02734 c 0.43384,-0.0148 0.96759,0.26566 1.79102,0.68945 0.70461,0.67314 1.75343,1.61761 3.25391,2.91016 0.37279,0.32113 0.91135,1.11909 1.32422,1.77734 0.32521,0.82198 0.82309,2.26563 0.17578,2.26563 -0.84651,0 -1.69642,0.47204 -1.88867,1.04883 -0.19228,0.5768 -1.58639,-0.24288 -3.09766,-1.82032 -1.51127,-1.5774 -2.44273,-3.17446 -2.06836,-3.54882 0.37436,-0.37437 0.15219,-0.67969 -0.49414,-0.67969 -0.88423,0 -0.89451,-0.44892 -0.043,-1.8125 0.35907,-0.57496 0.66409,-0.81704 1.04687,-0.83008 z"
       sodipodi:nodetypes="scccssssccccccccccsssssssssssssssssssssssssssssssssssssssssscscssssssss" />
    <path
       style="fill:#000000"
       d="m 674.40782,-471.13567 137.43004,-29.8761"
       id="path6" />
    <path
       style="fill:#000000"
       d="m 731.76992,-601.39546 155.35571,-65.72741"
       id="path7" />
  </g>
</svg>
